<?xml version="1.0" encoding="UTF-8"?>
<!DOCTYPE svg  PUBLIC '-//W3C//DTD SVG 1.1//EN'  'http://www.w3.org/Graphics/SVG/1.1/DTD/svg11.dtd'>
<svg width="567.13pt" height="567.13pt" version="1.1" viewBox="0 0 567.13446 567.13446" xmlns="http://www.w3.org/2000/svg">
  <circle cx="283.57" cy="283.57" r="279.82" fill="#fff" stroke="#000" stroke-width="7.5"/>
  <path id="led" d="m164.56 152.41c1.9193-0.49867 4.0575-0.35158 5.8118 0.61706 2.418 1.2664 4.0503 3.8996 4.0718 6.6334 0.0108 19.502-4e-3 39.007 7e-3 58.509-0.0108 1.7471 0.15068 3.5732-0.54889 5.2234-1.1875 3.0386-4.445 5.123-7.7132 4.8216-3.8996-0.11122-7.2432-3.6449-7.2504-7.5231-0.0108-20.338-0.0143-40.675 0-61.01-4e-3 -3.322 2.4216-6.4217 5.6217-7.2719z" fill="#46aa32"/>
  <g transform="matrix(.35875 0 0 .35875 93.73 143.19)">
    <path d="m452.32 71.81c23.71-21.51 54.76-34.58 86.66-36.85 37.03-2.95 75.19 8.48 103.94 32.15 25.41 20.6 43.21 50.74 47.56 83.29 1.41 9.14 0.96 18.4 1.02 27.6 0.01 61.67-0.02 123.34 0.01 185 0.1 5.9-2.48 11.73-6.85 15.67-6.13 5.68-15.61 7.25-23.25 3.88-7.39-3.06-12.75-10.63-12.91-18.67-0.05-65.28 0.06-130.57-0.05-195.86 0.05-20.5-7.81-40.75-21.31-56.13-20.99-24.34-54.28-36.71-86.1-33.7-23.94 2-47.27 12.51-63.99 29.87-15.34 15.51-24.73 36.99-24.8 58.89 0 65.03 0.02 130.05-0.01 195.08 0.01 8.74-5.92 17.13-14.17 20.01-5.3 1.84-11.32 1.68-16.44-0.64-7.46-3.29-12.65-11.15-12.62-19.32-0.02-98.05-0.01-196.1-0.01-294.15-0.05-5.99 2.6-11.88 7.05-15.87 5.99-5.65 15.34-7.16 22.88-3.97 5.6 2.27 10.12 7.04 12.09 12.76 1.28 3.5 1.22 7.28 1.3 10.96z"/>
    <path d="m773.17 80.17c25.62-25.26 59.9-41.94 95.87-45 37.15-3.59 75.18 7.56 105.13 29.66 47.53 34.58 74.66 93.8 73.21 152.18-0.87 10.26-10.03 18.94-20.34 19.18-18 0.28-36-0.25-53.99 0.31-25.67 0.09-51.35-0.15-77.01 0.12-25.68 0.31-51.36 0.04-77.04 0.14-18.71 0.55-37.44 0.03-56.16 0.31 4.46 31.2 19.19 61.15 42.29 82.77 15.49 14.56 34.87 25.13 55.75 29.4 17.26 3.59 35.19 2.58 52.36-1 26.85-5.69 52.2-19.93 69.63-41.33 4.7-5.83 12.58-8.83 19.97-7.65 7.63 1.08 14.49 6.54 17.06 13.84 2.67 7.08 1.29 15.45-3.53 21.28-29.17 35.97-74.45 56.99-120.32 59.84-32.63 2.76-66.03-5.17-93.85-22.46-29.25-17.93-52.44-45.11-66.72-76.21-17.38-37.41-21.82-80.47-13.52-120.79 7.33-35.61 25.02-69.25 51.21-94.59m78.24 2.23c-14.98 4.43-28.86 12.24-40.86 22.21-26.5 22.17-43.58 54.94-47.79 89.12 35.75 0.23 71.49-0.38 107.24-0.23 22 0.18 43.99-0.42 66-0.25 22.22 0.09 44.43-0.07 66.65-0.25-2.68-20.42-9.95-40.24-20.95-57.66-14.84-23.42-37.12-42.58-63.54-51.58-21.36-7.49-45.09-7.95-66.75-1.36z"/>
    <path d="m103.45 64.69c10.29-2.41 21.59 3.92 24.94 13.94 3.04 8.62 0.16 19.01-7.3 24.44-21.93 16.34-39.16 39.1-48.07 65.01-10.48 29.67-10.4 62.96 0.36 92.54 10.81 30.29 32.67 56.38 60.42 72.59 24.97 14.77 54.71 21.11 83.55 18.16 28.9-2.88 56.72-15.25 78.26-34.73 22.28-19.95 37.91-47.27 43.44-76.7 5.74-29.81 1.43-61.54-12.47-88.56-8.21-16.46-20.07-30.98-34.06-42.87-3.05-2.65-6.48-4.84-9.35-7.7-5.91-5.89-7.58-15.43-4.42-23.1 2.62-6.58 8.69-11.69 15.66-13.03 5.92-1.27 12.31 0.12 17.17 3.72 27.13 20.08 48.33 48.02 60.62 79.44 11.28 28.53 15.1 59.97 10.96 90.38-3.88 29.53-15.34 57.99-32.85 82.07-16.34 22.61-38 41.32-62.68 54.29-26.25 13.83-55.96 21.08-85.64 20.69-35.27-0.03-70.36-10.98-99.6-30.67-26.79-17.97-48.73-43.17-62.59-72.32-17.43-35.76-22.19-77.44-13.76-116.29 9.12-42.65 34.1-81.77 69.24-107.67 2.46-1.7 5.22-3.01 8.17-3.63z"/>
    <path d="m650.72 411.95c-0.19-6.01 5.24-11.34 11.25-10.96 5.81 0.02 10.69 5.33 10.5 11.09 0.21 21.6-0.16 43.21 0.16 64.8l0.57 0.65c14.28 0.29 28.57-0.03 42.85 0.12 3.92-0.06 7.8 2.31 9.36 5.95 2.2 4.32 1.03 9.99-2.72 13.08-2.59 2.42-6.33 2.63-9.67 2.61-13.44-0.08-26.88-0.01-40.32-0.06-0.44 68.25-0.02 136.53-0.21 204.78 0.33 5.87-4.44 11.56-10.48 11.5-6.28 0.58-11.7-5.33-11.31-11.47-0.02-68.25-0.01-136.5-0.01-204.75-7.92-0.16-15.84 0.09-23.75-0.07-4.6 0.02-9.28-2.89-10.52-7.45-0.65-3.5-0.62-7.6 1.97-10.35 2.02-2.6 5.31-3.92 8.56-3.8 7.9-0.04 15.81 0.06 23.72 0.01 0.08-21.89-0.05-43.79 0.05-65.68z"/>
    <path d="m83.02 499.05c16.22-13.93 37.56-21.89 58.98-21.45 31.13-0.14 61.51 17.69 76.75 44.8 0.2 1.1 1.63 1.77 2.2 0.56 7.94-13.87 19.58-25.62 33.46-33.56 16.31-9.48 35.67-13.42 54.4-11.29 19.57 2.04 38.34 10.92 52.42 24.67 17.73 16.99 28.15 41.61 27.29 66.23-0.03 45.67 0 91.34-0.02 137.01 0.28 7.35-8.48 12.45-14.94 9.39-4.61-1.67-6.84-6.7-6.68-11.35-0.05-45.35-0.03-90.7-0.01-136.05 0.51-15.77-5.31-31.48-15.2-43.67-9.8-12.18-23.99-20.61-39.25-23.85-16.24-3.27-33.61-0.42-47.85 8.07-20.19 11.65-33.38 34.17-33.75 57.46-0.04 46.35-0.01 92.7-0.01 139.05 0.39 5.28-3.64 10.27-8.86 11.04-6.09 1.31-12.74-3.74-12.63-10.07-0.06-46.34-0.01-92.69-0.02-139.03-0.1-13.1-4.01-26.12-11.26-37.04-8.65-13.21-22.02-23.3-37.16-27.83-16-4.98-33.9-3.66-48.95 3.75-22.78 10.6-38.75 34.84-38.66 60.08-0.01 46.03 0.04 92.05-0.02 138.08 0.33 6.1-5 11.98-11.26 11.46-6.14 0.16-10.93-5.67-10.53-11.6-0.03-68.64 0.01-137.28-0.02-205.92-0.1-3.57 1.11-7.31 3.98-9.58 2.75-2.48 6.76-2.65 10.21-1.96 4.17 1.22 7.21 5.22 7.51 9.52 0.32 4.1 0.04 8.22 0.2 12.33 3.3-3.01 6.3-6.33 9.68-9.25z"/>
    <path d="m478.97 483.94c18.93-7.19 40.02-8.19 59.68-3.61 30.85 7.34 57.17 29.25 72.13 56.94 10.44 18.81 15.69 40.31 16.07 61.78 0.28 4.12-1.44 8.57-5.11 10.73-4.1 2.6-9.17 1.55-13.74 1.75-61.1 0.06-122.21-0.15-183.3 0.11 1.67 17.03 7.21 33.75 16.55 48.14 9.65 15.13 23.55 27.69 40 35 13 5.96 27.63 8.24 41.84 6.84 20.16-1.33 40.02-8.97 55.43-22.13 4.52-3.81 8.2-8.48 12.5-12.5 5.77-4.65 15.47-1.11 16.9 6.16 1.71 5.75-2.78 10.53-6.42 14.34-25.84 28-66.27 40.42-103.6 34.73-32.25-4.96-60.5-26.4-76.99-54.13-21.36-35.46-24.27-81.13-8.04-119.15 12.19-29.25 36.1-54.08 66.1-65m-1.01 23.99c-30.59 15.3-50.41 48.07-53.15 81.75 59.95 0.03 119.91 0.05 179.86-0.01-1.92-19.34-8.81-38.26-20.48-53.85-11.38-15.41-27.51-27.57-45.96-33.07-19.75-6.28-41.82-4.13-60.27 5.18z"/>
    <path d="m790 480.97c20.35-5.32 42.4-4.5 62.12 2.95 27.84 10.09 50.43 32.27 63.29 58.7 8.69 17.81 13.15 37.65 13.26 57.45 0.42 5.96-4.78 11.47-10.75 11.4-63.78 0.19-127.56-0.13-191.34 0.16 2.96 33.86 22.91 66.8 53.85 81.95 23.48 11.74 51.83 10.5 75.75 0.68 13.46-5.41 25.31-14.37 34.7-25.38 3.47-4.54 10.54-5.28 14.99-1.77 5.01 3.58 5.34 11.57 1.3 16-17.09 20.72-42.17 34.28-68.56 38.62-19.49 3.35-40.05 2.44-58.61-4.77-29.12-10.93-52.43-34.93-64.66-63.3-16.41-37.27-14.36-82.17 5.71-117.65 14.7-26.3 39.6-47.29 68.95-55.04m-13.37 28.65c-16.17 8.87-29.18 22.92-37.86 39.11-6.59 12.7-11.3 26.71-11.92 41.08 59.77-0.2 119.55-0.14 179.32-0.03-0.57-12.6-4.38-24.93-9.61-36.34-11.15-23.98-32.14-43.94-57.9-51.12-20.54-6.12-43.38-3.14-62.03 7.3z"/>
    <path d="m980.74 496.74c15.88-12.46 36.07-19.68 56.32-19.07 6.63 0.16 11.56 7.59 9.43 13.8-1.24 4.6-5.73 7.79-10.44 7.72-18.28-0.13-36.29 7.79-48.95 20.89-9.19 9.72-15.76 22.06-17.96 35.31-1.37 7.12-0.95 14.4-1 21.61-0.01 42.35 0.02 84.71-0.01 127.06 0.32 5.69-4.27 11.36-10.12 11.43-5.89 0.62-11.75-4.41-11.48-10.44-0.03-59.68 0-119.37-0.01-179.05 0.14-10.67-0.27-21.36 0.17-32.01 0.94-7.91 11.76-11.57 17.46-6.19 6.11 5.04 3.36 13.76 4.02 20.59 4.23-3.85 8.03-8.16 12.57-11.65z"/>
  </g>
</svg>
